<?xml version="1.0" encoding="UTF-8" standalone="no"?>
<svg
   xmlns:dc="http://purl.org/dc/elements/1.1/"
   xmlns:cc="http://creativecommons.org/ns#"
   xmlns:rdf="http://www.w3.org/1999/02/22-rdf-syntax-ns#"
   xmlns:svg="http://www.w3.org/2000/svg"
   xmlns="http://www.w3.org/2000/svg"
   xmlns:sodipodi="http://sodipodi.sourceforge.net/DTD/sodipodi-0.dtd"
   xmlns:inkscape="http://www.inkscape.org/namespaces/inkscape"
   inkscape:version="1.0 (1.0+r73+1)"
   height="512"
   width="512"
   sodipodi:docname="microphone.svg"
   id="svg4"
   version="1.1"
   viewBox="0 0 512 512">
  <metadata
     id="metadata10">
    <rdf:RDF>
      <cc:Work
         rdf:about="">
        <dc:format>image/svg+xml</dc:format>
        <dc:type
           rdf:resource="http://purl.org/dc/dcmitype/StillImage" />
        <dc:title></dc:title>
      </cc:Work>
    </rdf:RDF>
  </metadata>
  <defs
     id="defs8" />
  <sodipodi:namedview
     inkscape:current-layer="svg4"
     inkscape:window-maximized="0"
     inkscape:window-y="530"
     inkscape:window-x="2281"
     inkscape:cy="381.20701"
     inkscape:cx="66.854459"
     inkscape:zoom="0.42480469"
     showgrid="false"
     id="namedview6"
     inkscape:window-height="781"
     inkscape:window-width="1297"
     inkscape:pageshadow="2"
     inkscape:pageopacity="0"
     guidetolerance="10"
     gridtolerance="10"
     objecttolerance="10"
     borderopacity="1"
     bordercolor="#666666"
     pagecolor="#ffffff" />
  <!-- Font Awesome Free 5.15.2 by @fontawesome - https://fontawesome.com License - https://fontawesome.com/license/free (Icons: CC BY 4.0, Fonts: SIL OFL 1.1, Code: MIT License) -->
  <path
     id="path2"
     d="m 256,352 c 53.02,0 96,-42.98 96,-96 V 96 C 352,42.98 309.02,0 256,0 202.98,0 160,42.98 160,96 v 160 c 0,53.02 42.98,96 96,96 z M 416,192 h -16 c -8.84,0 -16,7.16 -16,16 v 48 C 384,330.8 319.51,390.82 243.21,383.38 176.71,376.89 128,317.11 128,250.3 V 208 c 0,-8.84 -7.16,-16 -16,-16 H 96 c -8.84,0 -16,7.16 -16,16 v 40.16 c 0,89.64 63.97,169.55 152,181.69 V 464 h -56 c -8.84,0 -16,7.16 -16,16 v 16 c 0,8.84 7.16,16 16,16 h 160 c 8.84,0 16,-7.16 16,-16 v -16 c 0,-8.84 -7.16,-16 -16,-16 H 280 V 430.23 C 365.71,418.47 432,344.9 432,256 v -48 c 0,-8.84 -7.16,-16 -16,-16 z" />
</svg>
