<svg xmlns="http://www.w3.org/2000/svg" width="653.081" height="221.861"><path d="M350.128 102.372H336.15V78.101h13.979v4.217h-8.832v5.329h8.218v4.217h-8.218v6.259h8.832v4.249zm15.909 0l-.979-2.523h-.133c-.853 1.073-1.729 1.817-2.631 2.233-.902.414-2.078.622-3.528.622-1.782 0-3.185-.509-4.208-1.527-1.024-1.019-1.536-2.468-1.536-4.35 0-1.97.689-3.423 2.067-4.358 1.378-.935 3.456-1.452 6.234-1.552l3.221-.1v-.813c0-1.882-.963-2.822-2.889-2.822-1.483 0-3.227.448-5.229 1.345l-1.677-3.42c2.136-1.118 4.504-1.677 7.105-1.677 2.49 0 4.399.542 5.728 1.627s1.992 2.733 1.992 4.947v12.368h-3.537zm-1.495-8.6l-1.959.066c-1.472.044-2.568.31-3.287.797-.72.487-1.079 1.229-1.079 2.225 0 1.428.819 2.142 2.457 2.142 1.173 0 2.111-.338 2.814-1.013.703-.675 1.054-1.571 1.054-2.689v-1.528zm20.059-10.309c.686 0 1.256.05 1.71.149l-.382 4.748c-.41-.11-.908-.166-1.494-.166-1.616 0-2.875.415-3.777 1.245-.902.83-1.353 1.992-1.353 3.486v9.446h-5.063V83.812h3.835l.747 3.121h.249a6.969 6.969 0 012.333-2.515 5.743 5.743 0 013.195-.955zm12.356 15.207c.885 0 1.948-.193 3.188-.581v3.769c-1.262.564-2.812.847-4.648.847-2.025 0-3.5-.512-4.424-1.536-.924-1.023-1.386-2.559-1.386-4.606v-8.948h-2.424v-2.142l2.789-1.693 1.461-3.918h3.237v3.951h5.196v3.802h-5.196v8.948c0 .72.202 1.251.606 1.594.402.341.936.513 1.601.513zm23.528 3.702h-5.063V91.531c0-2.679-.996-4.018-2.988-4.018-1.417 0-2.44.481-3.071 1.444s-.946 2.523-.946 4.682v8.732h-5.063V76.54h5.063v5.263c0 .409-.039 1.372-.116 2.889l-.116 1.494h.266c1.129-1.815 2.922-2.723 5.379-2.723 2.18 0 3.835.587 4.964 1.76s1.693 2.855 1.693 5.047v12.102zm35.8 0h-6.259l-1.909-1.876c-2.114 1.472-4.505 2.208-7.172 2.208-2.701 0-4.842-.62-6.425-1.859-1.583-1.239-2.374-2.916-2.374-5.03 0-1.517.334-2.809 1.004-3.877.669-1.067 1.818-2.066 3.445-2.996-.83-.952-1.434-1.862-1.81-2.73-.376-.869-.564-1.818-.564-2.848 0-1.683.645-3.038 1.934-4.067 1.289-1.029 3.013-1.544 5.171-1.544 2.059 0 3.705.479 4.939 1.436 1.234.958 1.851 2.239 1.851 3.844a6.153 6.153 0 01-1.146 3.611c-.764 1.09-1.998 2.127-3.702 3.112l4.715 4.599c.786-1.295 1.466-2.961 2.042-4.997h5.279a23.83 23.83 0 01-1.644 4.374c-.697 1.423-1.489 2.682-2.374 3.777l4.999 4.863zm-18.809-7.039c0 .952.357 1.71 1.071 2.274s1.629.847 2.748.847c1.395 0 2.65-.338 3.769-1.013l-5.512-5.479c-.642.487-1.148.996-1.519 1.527-.372.532-.557 1.147-.557 1.844zm5.96-11.77c0-.587-.199-1.049-.598-1.387-.398-.337-.913-.506-1.544-.506-.742 0-1.326.177-1.751.531-.426.354-.639.857-.639 1.511 0 .974.525 2.048 1.577 3.221.952-.531 1.682-1.054 2.191-1.569.509-.514.764-1.115.764-1.801zm37.975 12.069c0 2.191-.789 3.918-2.366 5.18s-3.771 1.893-6.583 1.893c-2.59 0-4.881-.487-6.873-1.461v-4.781c1.638.73 3.024 1.245 4.159 1.544 1.134.299 2.172.448 3.113.448 1.129 0 1.995-.216 2.598-.647.603-.432.905-1.073.905-1.926a2.13 2.13 0 00-.398-1.27c-.266-.371-.656-.729-1.17-1.071s-1.563-.891-3.146-1.644c-1.483-.697-2.596-1.367-3.337-2.009a7.524 7.524 0 01-1.776-2.241c-.443-.853-.664-1.849-.664-2.988 0-2.147.728-3.835 2.183-5.063 1.455-1.229 3.467-1.843 6.035-1.843 1.262 0 2.465.149 3.611.448s2.343.72 3.594 1.262l-1.66 4.001c-1.295-.531-2.366-.902-3.212-1.112s-1.68-.315-2.499-.315c-.974 0-1.721.227-2.241.681-.521.454-.78 1.046-.78 1.776 0 .454.105.85.315 1.188.21.337.545.664 1.004.979.459.316 1.546.883 3.262 1.702 2.269 1.085 3.824 2.172 4.665 3.263.84 1.087 1.261 2.423 1.261 4.006zm13.651 7.072c-2.181 0-3.891-.791-5.13-2.374h-.266c.177 1.55.266 2.446.266 2.689v7.521h-5.063V83.812h4.117l.714 2.407h.232c1.184-1.837 2.938-2.756 5.263-2.756 2.191 0 3.907.847 5.146 2.54 1.239 1.693 1.859 4.045 1.859 7.056 0 1.981-.291 3.702-.872 5.163s-1.409 2.573-2.482 3.337c-1.073.763-2.335 1.145-3.784 1.145zm-1.495-15.19c-1.251 0-2.164.385-2.739 1.154-.576.769-.875 2.039-.896 3.81v.548c0 1.992.296 3.42.888 4.283.592.863 1.53 1.295 2.814 1.295 2.269 0 3.403-1.87 3.403-5.611 0-1.826-.28-3.195-.838-4.109-.559-.913-1.436-1.37-2.632-1.37zm24.06 14.858l-.979-2.523h-.133c-.853 1.073-1.729 1.817-2.631 2.233-.902.414-2.078.622-3.528.622-1.782 0-3.185-.509-4.208-1.527-1.024-1.019-1.536-2.468-1.536-4.35 0-1.97.689-3.423 2.067-4.358 1.378-.935 3.456-1.452 6.234-1.552l3.221-.1v-.813c0-1.882-.963-2.822-2.889-2.822-1.483 0-3.227.448-5.229 1.345l-1.677-3.42c2.136-1.118 4.504-1.677 7.105-1.677 2.49 0 4.399.542 5.728 1.627s1.992 2.733 1.992 4.947v12.368h-3.537zm-1.494-8.6l-1.959.066c-1.472.044-2.568.31-3.287.797-.72.487-1.079 1.229-1.079 2.225 0 1.428.819 2.142 2.457 2.142 1.173 0 2.111-.338 2.814-1.013.703-.675 1.054-1.571 1.054-2.689v-1.528zm17.236 8.932c-5.777 0-8.666-3.171-8.666-9.513 0-3.154.786-5.564 2.357-7.23 1.571-1.665 3.824-2.498 6.757-2.498 2.147 0 4.073.421 5.777 1.262l-1.494 3.918a25.68 25.68 0 00-2.225-.789 7.202 7.202 0 00-2.059-.307c-2.634 0-3.951 1.87-3.951 5.611 0 3.63 1.317 5.445 3.951 5.445.974 0 1.876-.13 2.706-.391.83-.26 1.66-.666 2.49-1.22v4.333c-.819.521-1.646.88-2.482 1.079-.834.2-1.888.3-3.161.3zm17.801 0c-2.988 0-5.324-.824-7.006-2.474-1.683-1.649-2.523-3.984-2.523-7.006 0-3.11.777-5.515 2.333-7.213 1.555-1.699 3.705-2.549 6.45-2.549 2.623 0 4.665.747 6.126 2.241s2.191 3.559 2.191 6.192v2.457h-11.97c.055 1.438.481 2.563 1.278 3.37s1.915 1.212 3.354 1.212c1.118 0 2.175-.116 3.171-.349s2.036-.604 3.121-1.112v3.918c-.886.442-1.832.771-2.839.988-1.008.217-2.236.325-3.686.325zm-.714-15.639c-1.074 0-1.915.341-2.523 1.021-.609.682-.958 1.646-1.046 2.897h7.105c-.022-1.251-.349-2.216-.979-2.897-.631-.68-1.484-1.021-2.557-1.021zm-201.02 42.995c0 2.191-.789 3.918-2.366 5.18s-3.771 1.893-6.583 1.893c-2.59 0-4.881-.487-6.873-1.461v-4.781c1.638.73 3.024 1.245 4.159 1.544 1.134.299 2.172.448 3.113.448 1.129 0 1.995-.216 2.598-.647.603-.432.905-1.073.905-1.926a2.13 2.13 0 00-.398-1.27c-.266-.371-.656-.729-1.17-1.071s-1.563-.891-3.146-1.644c-1.483-.697-2.596-1.367-3.337-2.009a7.524 7.524 0 01-1.776-2.241c-.443-.853-.664-1.849-.664-2.988 0-2.147.728-3.835 2.183-5.063 1.455-1.229 3.467-1.843 6.035-1.843 1.262 0 2.465.149 3.611.448s2.343.72 3.594 1.262l-1.66 4.001c-1.295-.531-2.366-.902-3.212-1.112s-1.68-.315-2.499-.315c-.974 0-1.721.227-2.241.681-.521.454-.78 1.046-.78 1.776 0 .454.105.85.315 1.188.21.337.545.664 1.004.979.459.316 1.546.883 3.262 1.702 2.269 1.085 3.824 2.172 4.665 3.263.84 1.087 1.261 2.423 1.261 4.006zm10.994 7.072c-5.777 0-8.666-3.171-8.666-9.513 0-3.154.786-5.564 2.357-7.23 1.571-1.665 3.824-2.498 6.757-2.498 2.147 0 4.073.421 5.777 1.262l-1.494 3.918a25.68 25.68 0 00-2.225-.789 7.202 7.202 0 00-2.059-.307c-2.634 0-3.951 1.87-3.951 5.611 0 3.63 1.317 5.445 3.951 5.445.974 0 1.876-.13 2.706-.391.83-.26 1.66-.666 2.49-1.22v4.333c-.819.521-1.646.88-2.482 1.079-.835.2-1.889.3-3.161.3zm9.184-23.691c0-1.649.918-2.474 2.756-2.474 1.837 0 2.756.824 2.756 2.474 0 .786-.23 1.397-.689 1.834-.459.438-1.148.656-2.067.656-1.837.001-2.756-.829-2.756-2.49zm5.28 23.359h-5.063v-18.561h5.063V136.8zm13.169.332c-2.988 0-5.324-.824-7.006-2.474-1.683-1.649-2.523-3.984-2.523-7.006 0-3.11.777-5.515 2.333-7.213 1.555-1.699 3.705-2.549 6.45-2.549 2.623 0 4.665.747 6.126 2.241s2.191 3.559 2.191 6.192v2.457h-11.97c.055 1.438.481 2.563 1.278 3.37s1.915 1.212 3.354 1.212c1.118 0 2.175-.116 3.171-.349s2.036-.604 3.121-1.112v3.918c-.886.442-1.832.771-2.839.988-1.008.216-2.237.325-3.686.325zm-.714-15.639c-1.074 0-1.915.341-2.523 1.021-.609.682-.958 1.646-1.046 2.897h7.105c-.022-1.251-.349-2.216-.979-2.897-.632-.68-1.484-1.021-2.557-1.021zm28.99 15.307h-5.063v-10.841c0-1.339-.238-2.344-.714-3.014-.476-.669-1.234-1.004-2.274-1.004-1.417 0-2.44.473-3.071 1.42-.631.945-.946 2.515-.946 4.706v8.732h-5.063v-18.561h3.868l.681 2.374h.282a5.347 5.347 0 012.333-2.033c.99-.46 2.117-.689 3.378-.689 2.158 0 3.796.584 4.914 1.752 1.118 1.167 1.677 2.853 1.677 5.055V136.8zm12.205.332c-5.777 0-8.666-3.171-8.666-9.513 0-3.154.786-5.564 2.357-7.23 1.571-1.665 3.824-2.498 6.757-2.498 2.147 0 4.073.421 5.777 1.262l-1.494 3.918a25.68 25.68 0 00-2.225-.789 7.202 7.202 0 00-2.059-.307c-2.634 0-3.951 1.87-3.951 5.611 0 3.63 1.317 5.445 3.951 5.445.974 0 1.876-.13 2.706-.391.83-.26 1.66-.666 2.49-1.22v4.333c-.819.521-1.646.88-2.482 1.079-.834.2-1.888.3-3.161.3zm17.801 0c-2.988 0-5.324-.824-7.006-2.474-1.683-1.649-2.523-3.984-2.523-7.006 0-3.11.777-5.515 2.333-7.213 1.555-1.699 3.705-2.549 6.45-2.549 2.623 0 4.665.747 6.126 2.241s2.191 3.559 2.191 6.192v2.457h-11.97c.055 1.438.481 2.563 1.278 3.37s1.915 1.212 3.354 1.212c1.118 0 2.175-.116 3.171-.349s2.036-.604 3.121-1.112v3.918c-.886.442-1.832.771-2.839.988-1.008.216-2.236.325-3.686.325zm-.714-15.639c-1.074 0-1.915.341-2.523 1.021-.609.682-.958 1.646-1.046 2.897h7.105c-.022-1.251-.349-2.216-.979-2.897-.631-.68-1.483-1.021-2.557-1.021zm20.544 15.307v-24.271h5.146V136.8h-5.146zm27.447 0h-5.063v-10.841c0-1.339-.238-2.344-.714-3.014-.476-.669-1.234-1.004-2.274-1.004-1.417 0-2.44.473-3.071 1.42-.631.945-.946 2.515-.946 4.706v8.732h-5.063v-18.561h3.868l.681 2.374h.282a5.347 5.347 0 012.333-2.033c.99-.46 2.117-.689 3.378-.689 2.158 0 3.796.584 4.914 1.752 1.118 1.167 1.677 2.853 1.677 5.055V136.8zm14.928-14.759h-4.383V136.8h-5.063v-14.759h-2.789v-2.44l2.789-1.361v-1.361c0-2.114.52-3.658 1.561-4.632 1.04-.974 2.706-1.461 4.997-1.461 1.749 0 3.304.26 4.665.78l-1.295 3.719c-1.019-.321-1.959-.481-2.822-.481-.72 0-1.24.213-1.561.639-.321.427-.481.972-.481 1.636v1.162h4.383v3.8zm19.229 5.445c0 3.021-.797 5.385-2.391 7.089s-3.813 2.557-6.657 2.557c-1.782 0-3.354-.39-4.715-1.171-1.361-.779-2.407-1.9-3.138-3.361s-1.096-3.165-1.096-5.113c0-3.032.791-5.39 2.374-7.072 1.583-1.683 3.807-2.523 6.674-2.523 1.782 0 3.354.388 4.715 1.162s2.407 1.887 3.138 3.337 1.096 3.147 1.096 5.095zm-12.833 0c0 1.837.301 3.227.905 4.167.603.94 1.585 1.411 2.947 1.411 1.35 0 2.321-.468 2.914-1.402.592-.936.888-2.327.888-4.176 0-1.837-.299-3.215-.896-4.134s-1.577-1.378-2.938-1.378c-1.351 0-2.324.457-2.922 1.369-.599.915-.898 2.295-.898 4.143zm26.832-9.595c.686 0 1.256.05 1.71.149l-.382 4.748c-.41-.11-.908-.166-1.494-.166-1.616 0-2.875.415-3.777 1.245-.902.83-1.353 1.992-1.353 3.486v9.446h-5.063v-18.561h3.835l.746 3.122h.249a6.969 6.969 0 012.333-2.515 5.754 5.754 0 013.196-.954zm21.154 18.909h-5.063v-10.841c0-1.339-.224-2.344-.672-3.014-.448-.669-1.154-1.004-2.117-1.004-1.295 0-2.236.476-2.822 1.428-.587.952-.88 2.518-.88 4.698v8.732h-5.063v-18.561h3.868l.681 2.374h.282c.498-.853 1.217-1.52 2.158-2 .94-.482 2.02-.723 3.237-.723 2.778 0 4.659.907 5.645 2.723h.448c.498-.863 1.231-1.533 2.2-2.009.968-.476 2.061-.714 3.279-.714 2.103 0 3.694.539 4.773 1.619 1.079 1.078 1.619 2.808 1.619 5.188V136.8h-5.08v-10.841c0-1.339-.224-2.344-.672-3.014-.448-.669-1.154-1.004-2.117-1.004-1.24 0-2.167.442-2.781 1.328s-.921 2.291-.921 4.217v9.314zm28.01 0l-.979-2.523h-.133c-.853 1.073-1.729 1.817-2.631 2.233-.902.414-2.078.622-3.528.622-1.782 0-3.185-.509-4.208-1.527-1.024-1.019-1.536-2.468-1.536-4.35 0-1.97.689-3.423 2.067-4.358 1.378-.935 3.456-1.452 6.234-1.552l3.221-.1v-.813c0-1.882-.963-2.822-2.889-2.822-1.483 0-3.227.448-5.229 1.345l-1.677-3.42c2.136-1.118 4.504-1.677 7.105-1.677 2.49 0 4.399.542 5.728 1.627s1.992 2.733 1.992 4.947V136.8h-3.537zm-1.494-8.6l-1.959.066c-1.472.044-2.568.31-3.287.797-.72.487-1.079 1.229-1.079 2.225 0 1.428.819 2.142 2.457 2.142 1.173 0 2.111-.338 2.814-1.013.703-.675 1.054-1.571 1.054-2.689V128.2zm17.519 4.898c.885 0 1.948-.193 3.188-.581v3.769c-1.262.564-2.812.847-4.648.847-2.025 0-3.5-.512-4.424-1.536-.924-1.023-1.386-2.559-1.386-4.606v-8.948h-2.424v-2.142l2.789-1.693 1.461-3.918h3.237v3.951h5.196v3.802h-5.196v8.948c0 .72.202 1.251.606 1.594.403.341.937.513 1.601.513zm6.179-19.657c0-1.649.918-2.474 2.756-2.474 1.837 0 2.756.824 2.756 2.474 0 .786-.23 1.397-.689 1.834-.459.438-1.148.656-2.067.656-1.837.001-2.756-.829-2.756-2.49zm5.28 23.359h-5.063v-18.561h5.063V136.8zm12.305.332c-5.777 0-8.666-3.171-8.666-9.513 0-3.154.786-5.564 2.357-7.23 1.571-1.665 3.824-2.498 6.757-2.498 2.147 0 4.073.421 5.777 1.262l-1.494 3.918a25.68 25.68 0 00-2.225-.789 7.202 7.202 0 00-2.059-.307c-2.634 0-3.951 1.87-3.951 5.611 0 3.63 1.317 5.445 3.951 5.445.974 0 1.876-.13 2.706-.391.83-.26 1.66-.666 2.49-1.22v4.333c-.819.521-1.646.88-2.482 1.079-.834.2-1.888.3-3.161.3zm22.35-5.844c0 1.903-.662 3.354-1.984 4.35-1.323.996-3.301 1.494-5.935 1.494-1.351 0-2.501-.091-3.453-.274a12.968 12.968 0 01-2.673-.805v-4.184c.94.442 2 .813 3.179 1.112s2.216.448 3.113.448c1.837 0 2.756-.531 2.756-1.594 0-.398-.122-.723-.365-.971-.244-.25-.664-.531-1.262-.848a32.74 32.74 0 00-2.391-1.104c-1.428-.598-2.477-1.151-3.146-1.66-.67-.509-1.157-1.093-1.461-1.752-.305-.658-.457-1.469-.457-2.432 0-1.649.639-2.925 1.917-3.826 1.278-.902 3.09-1.354 5.437-1.354 2.235 0 4.41.487 6.524 1.461l-1.527 3.652a28.179 28.179 0 00-2.606-.979 8.174 8.174 0 00-2.474-.382c-1.494 0-2.241.404-2.241 1.212 0 .454.241.847.722 1.179s1.536.824 3.163 1.478c1.45.587 2.512 1.135 3.188 1.644.675.509 1.173 1.096 1.494 1.76.321.665.482 1.456.482 2.375z" fill="#644EA0"/><path d="M306.204 141.977c3.094-.085 5.481.692 7.162 2.325 1.683 1.635 2.567 4.026 2.653 7.181l.142 5.189-18.737.513-.157-5.74c-.08-2.915.666-5.202 2.236-6.859 1.57-1.659 3.805-2.53 6.701-2.609zm.14 2.305c-2.444.066-4.268.729-5.474 1.988-1.206 1.263-1.775 3.101-1.708 5.518l.086 3.167 14.969-.409-.073-2.654c-.071-2.598-.763-4.533-2.076-5.804-1.313-1.272-3.221-1.874-5.724-1.806zm9.244-8.553l.059 2.13-14.046.385-.058-2.131 14.045-.384zm-17.79 2.797c-.487.013-.847-.098-1.08-.332-.233-.23-.354-.528-.364-.885a1.26 1.26 0 01.321-.896c.224-.253.576-.386 1.055-.399.479-.013.838.101 1.079.341.243.242.368.534.377.876.01.357-.099.661-.329.904-.227.248-.58.378-1.059.391zm17.582-10.383l-13.9 5.716-.063-2.282 8.247-3.25c1.93-.738 3.184-1.174 3.761-1.31l-.002-.103c-.456-.081-1.402-.355-2.838-.813-1.437-.463-4.57-1.498-9.403-3.109l-.063-2.281 14.192 4.945.069 2.487zm-.334-12.201l.058 2.127-14.046.385-.058-2.128 14.046-.384zm-17.789 2.794c-.488.014-.847-.096-1.08-.328-.233-.233-.354-.528-.364-.889-.01-.341.097-.64.321-.894s.576-.387 1.054-.4c.479-.014.838.1 1.079.342.243.241.368.534.378.875.01.359-.1.662-.329.907-.228.246-.58.375-1.059.387zm13.586-16.26c1.307-.036 2.329.423 3.064 1.378.736.952 1.127 2.31 1.176 4.071.051 1.861-.204 3.322-.764 4.381l-1.974.054a10.7 10.7 0 00.749-2.194 9.111 9.111 0 00.233-2.245c-.03-1.109-.231-1.96-.602-2.548-.371-.589-.92-.871-1.646-.852-.547.016-1.008.264-1.384.748-.375.485-.809 1.424-1.301 2.813-.452 1.319-.852 2.263-1.199 2.823-.349.561-.75.981-1.203 1.264-.454.279-1.002.432-1.643.449-1.145.031-2.062-.41-2.748-1.322-.688-.916-1.055-2.184-1.099-3.807a11.207 11.207 0 01.802-4.46l1.75.711c-.542 1.426-.798 2.709-.766 3.855.027 1.007.207 1.763.537 2.269.33.503.772.746 1.328.731.376-.011.693-.115.953-.313.26-.199.504-.516.73-.95.228-.433.551-1.265.971-2.49.561-1.683 1.142-2.823 1.74-3.427.599-.601 1.365-.914 2.296-.939zm3.679-5.697l.058 2.13-14.046.385-.058-2.131 14.046-.384zm-17.79 2.797c-.488.014-.847-.095-1.08-.329-.233-.231-.354-.53-.364-.888-.01-.341.097-.639.321-.895.224-.254.576-.386 1.054-.399.479-.013.838.1 1.079.341.243.243.368.535.377.876.01.357-.099.662-.329.906-.226.248-.579.375-1.058.388zm10.299-19.237c2.29-.063 4.092.465 5.41 1.584 1.317 1.117 2.003 2.691 2.059 4.728.034 1.254-.229 2.379-.792 3.368-.564.991-1.388 1.767-2.476 2.324-1.088.563-2.371.859-3.849.9-2.29.063-4.09-.459-5.398-1.57-1.308-1.109-1.991-2.683-2.047-4.713-.054-1.969.558-3.545 1.833-4.74 1.276-1.192 3.029-1.82 5.26-1.881zm.293 10.699c1.794-.049 3.151-.443 4.072-1.186.919-.746 1.361-1.814 1.323-3.205-.038-1.392-.535-2.438-1.49-3.135-.956-.695-2.335-1.019-4.137-.969-1.786.049-3.133.446-4.04 1.192-.908.748-1.343 1.827-1.304 3.237.038 1.392.524 2.431 1.458 3.113.933.686 2.307 1.003 4.118.953zm6.377-24.235l-9.087.249c-1.145.031-1.992.315-2.542.854-.549.535-.81 1.358-.779 2.469.04 1.471.467 2.535 1.28 3.199.814.661 2.135.967 3.964.917l7.369-.202.058 2.126-14.046.385-.047-1.73 1.912-.398-.002-.1c-.704-.418-1.256-1.017-1.659-1.791-.402-.774-.616-1.646-.643-2.611-.046-1.692.327-2.975 1.12-3.853.792-.879 2.085-1.341 3.879-1.39l9.164-.251.059 2.127z" fill="#808285"/><g fill="#644EA0"><path d="M150.101 170.467c-13.34 11.006-30.428 17.625-49.033 17.625-42.547 0-77.162-34.613-77.162-77.162 0-42.547 34.615-77.16 77.162-77.16 18.605 0 35.693 6.619 49.033 17.625a61.712 61.712 0 0116.018-2.107 61.75 61.75 0 0116.701 2.291 101.904 101.904 0 00-28.522-26.516l6.976-14.959L139.607 0l-6.96 14.928a100.627 100.627 0 00-31.579-5.064C45.339 9.863 0 55.201 0 110.93c0 36.209 19.143 68.025 47.835 85.875l-6.973 14.953 21.667 10.104 6.958-14.922a100.637 100.637 0 0031.581 5.059c33.568 0 63.361-16.453 81.751-41.715a61.742 61.742 0 01-16.7 2.291 61.755 61.755 0 01-16.018-2.108z"/><path d="M109.285 84.51a62.894 62.894 0 0112.412-17.986H58.415v88.131h63.212a62.905 62.905 0 01-12.379-17.996H76.41v-17.072h27.832a63.356 63.356 0 01-.647-8.961c0-3.068.231-6.082.656-9.033H76.41V84.518s21.625-.004 32.875-.008z"/><path d="M159.224 119.24h21.583v16.389c-4.335 2.496-9.218 3.799-14.328 3.799-15.902 0-28.838-12.938-28.838-28.84s12.937-28.838 28.838-28.838c6.516 0 12.662 2.119 17.774 6.127l11.104-14.162c-8.311-6.516-18.296-9.961-28.877-9.961-25.824 0-46.833 21.01-46.833 46.834s21.009 46.834 46.833 46.834c10.581 0 20.567-3.443 28.877-9.959l3.446-2.703v-43.516h-39.579v17.996zm102.905-52.717v57.619c0 8.428-6.856 15.285-15.284 15.285s-15.284-6.857-15.284-15.285V66.523h-17.996v57.619c0 18.352 14.93 33.279 33.28 33.279s33.279-14.928 33.279-33.279V66.523h-17.995z"/></g></svg>