<?xml version="1.0" encoding="UTF-8" standalone="no"?>
<svg
   xmlns:dc="http://purl.org/dc/elements/1.1/"
   xmlns:cc="http://creativecommons.org/ns#"
   xmlns:rdf="http://www.w3.org/1999/02/22-rdf-syntax-ns#"
   xmlns:svg="http://www.w3.org/2000/svg"
   xmlns="http://www.w3.org/2000/svg"
   xmlns:sodipodi="http://sodipodi.sourceforge.net/DTD/sodipodi-0.dtd"
   xmlns:inkscape="http://www.inkscape.org/namespaces/inkscape"
   inkscape:version="1.0 (1.0+r73+1)"
   sodipodi:docname="vegu2021-yellow.svg"
   xml:space="preserve"
   style="enable-background:new 0 0 381.3 99.5;"
   viewBox="0 0 381.3 99.5"
   y="0px"
   x="0px"
   id="Layer_1"
   version="1.1"><metadata
   id="metadata57"><rdf:RDF><cc:Work
       rdf:about=""><dc:format>image/svg+xml</dc:format><dc:type
         rdf:resource="http://purl.org/dc/dcmitype/StillImage" /><dc:title></dc:title></cc:Work></rdf:RDF></metadata><defs
   id="defs55" /><sodipodi:namedview
   inkscape:current-layer="Layer_1"
   inkscape:window-maximized="0"
   inkscape:window-y="436"
   inkscape:window-x="46"
   inkscape:cy="49.75"
   inkscape:cx="190.64999"
   inkscape:zoom="2.9242068"
   showgrid="false"
   id="namedview53"
   inkscape:window-height="896"
   inkscape:window-width="1787"
   inkscape:pageshadow="2"
   inkscape:pageopacity="0"
   guidetolerance="10"
   gridtolerance="10"
   objecttolerance="10"
   borderopacity="1"
   bordercolor="#666666"
   pagecolor="#ffffff" />
<style
   id="style2"
   type="text/css">
	.st0{fill:#1373BA;}
</style>
<path
   style="fill:#ffdd00;fill-opacity:1"
   id="path4"
   d="M140.1,38.1h7.2v9.3c-1,0.3-2.1,0.6-3.2,0.8c-1,0.2-2.1,0.3-3.1,0.3c-2.3,0.1-4.6-0.7-6.3-2.4  c-1.5-2-2.3-4.4-2.1-6.9c0-2.9,0.8-5.3,2.5-6.9c1.9-1.7,4.4-2.6,6.9-2.5c1.9,0,3.7,0.3,5.4,1.1l-1.3,3c-1.3-0.7-2.7-1-4.2-1  c-1.5-0.1-3,0.5-4,1.6c-1,1.3-1.5,2.9-1.4,4.5c-0.1,1.6,0.3,3.2,1.2,4.5c0.9,1.1,2.2,1.6,3.6,1.5c0.8,0,1.6-0.1,2.4-0.3v-3.8h-3.5  L140.1,38.1L140.1,38.1z"
   class="st0" />
<path
   style="fill:#ffdd00;fill-opacity:1"
   id="path6"
   d="M157.1,48.5c-2,0.1-3.9-0.6-5.3-1.9c-1.4-1.4-2.1-3.3-1.9-5.3c-0.1-1.9,0.5-3.9,1.7-5.4c1.2-1.3,3-2,4.8-1.9  c1.7-0.1,3.4,0.5,4.6,1.6c1.2,1.3,1.7,3,1.6,4.7v1.9h-8.9c-0.2,1.7,1.1,3.2,2.8,3.4c0.2,0,0.4,0,0.6,0c0.8,0,1.6-0.1,2.4-0.3  c0.8-0.2,1.6-0.4,2.3-0.8v2.9c-0.7,0.3-1.4,0.6-2.1,0.8C158.9,48.5,158,48.6,157.1,48.5z M156.6,36.9c-0.7,0-1.4,0.3-1.9,0.8  c-0.5,0.6-0.7,1.3-0.8,2.1h5.3c0-0.8-0.3-1.5-0.8-2.1C158.1,37.1,157.6,36.9,156.6,36.9z"
   class="st0" />
<path
   style="fill:#ffdd00;fill-opacity:1"
   id="path8"
   d="M178.5,48.3h-3.8v-8c0-0.8-0.1-1.5-0.5-2.2c-0.4-0.6-1-0.9-1.7-0.8c-0.9-0.1-1.8,0.3-2.3,1  c-0.5,1.1-0.8,2.4-0.7,3.6v6.5h-3.8V34.5h2.9l0.5,1.8h0.2c0.4-0.7,1-1.2,1.7-1.5c0.8-0.3,1.6-0.5,2.5-0.5c1.4-0.1,2.7,0.4,3.7,1.3  c0.9,1.1,1.4,2.4,1.3,3.8L178.5,48.3L178.5,48.3z"
   class="st0" />
<path
   style="fill:#ffdd00;fill-opacity:1"
   id="path10"
   d="M188.1,48.5c-2,0.1-3.9-0.6-5.3-1.9c-1.4-1.4-2.1-3.3-1.9-5.3c-0.1-1.9,0.5-3.9,1.7-5.4c1.2-1.3,3-2,4.8-1.9  c1.7-0.1,3.4,0.5,4.6,1.6c1.2,1.3,1.7,3,1.6,4.7v1.9h-8.8c-0.2,1.7,1.1,3.2,2.8,3.4c0.2,0,0.4,0,0.6,0c0.8,0,1.6-0.1,2.4-0.3  c0.8-0.2,1.6-0.4,2.3-0.8v2.9c-0.7,0.3-1.4,0.6-2.1,0.8C189.9,48.5,189,48.6,188.1,48.5z M187.6,36.9c-0.7,0-1.4,0.3-1.9,0.8  c-0.5,0.6-0.7,1.3-0.8,2.1h5.3c0-0.8-0.3-1.5-0.8-2.1C189.1,37.1,188.5,36.9,187.6,36.9z"
   class="st0" />
<path
   style="fill:#ffdd00;fill-opacity:1"
   id="path12"
   d="M204.3,34.1c0.4,0,0.9,0,1.3,0.1l-0.3,3.6c-0.4-0.1-0.7-0.1-1.1-0.1c-1-0.1-2,0.3-2.8,0.9  c-0.7,0.6-1.1,1.6-1,2.5v7h-3.8V34.5h2.8l0.5,2.3h0.2c0.4-0.8,1-1.4,1.7-1.9C202.6,34.5,203.4,34.2,204.3,34.1z"
   class="st0" />
<path
   style="fill:#ffdd00;fill-opacity:1"
   id="path14"
   d="M216.2,48.3l-0.8-1.9h-0.1c-0.5,0.7-1.1,1.3-1.9,1.6c-0.8,0.3-1.7,0.4-2.6,0.4c-1.1,0.1-2.3-0.3-3.1-1.1  c-0.8-0.9-1.2-2-1.1-3.2c-0.1-1.3,0.5-2.5,1.5-3.2c1.4-0.8,3.1-1.2,4.7-1.1l2.4-0.1v-0.6c0.1-1-0.6-2-1.6-2.1c-0.2,0-0.3,0-0.5,0  c-1.4,0-2.7,0.4-3.9,1l-1.3-2.5c1.6-0.9,3.5-1.3,5.3-1.3c1.5-0.1,3,0.3,4.3,1.2c1,0.9,1.6,2.3,1.4,3.7v9.2L216.2,48.3z M215.1,41.9  l-1.4,0.1c-0.9,0-1.7,0.2-2.5,0.6c-0.5,0.4-0.8,1-0.8,1.6c0,1,0.6,1.6,1.8,1.6c0.7,0,1.5-0.3,2-0.8c0.5-0.5,0.8-1.2,0.8-1.9  L215.1,41.9L215.1,41.9z"
   class="st0" />
<path
   style="fill:#ffdd00;fill-opacity:1"
   id="path16"
   d="M226.1,48.3h-3.8V29.1h3.8V48.3z"
   class="st0" />
<path
   style="fill:#ffdd00;fill-opacity:1"
   id="path18"
   d="M144.3,70.5l-1.3-4.3h-6.6l-1.3,4.3H131l6.4-18.2h4.7l6.4,18.2H144.3z M142,62.9c-1.2-4-1.9-6.1-2-6.6  c-0.2-0.4-0.3-0.8-0.3-1.2c-0.3,1-1,3.7-2.3,7.8H142z"
   class="st0" />
<path
   style="fill:#ffdd00;fill-opacity:1"
   id="path20"
   d="M160.4,66.3c0.1,1.2-0.5,2.4-1.4,3.2c-1.3,0.8-2.9,1.2-4.5,1.1c-0.8,0-1.7-0.1-2.5-0.2  c-0.7-0.1-1.3-0.3-1.9-0.6v-3c0.8,0.4,1.6,0.6,2.4,0.8c0.7,0.2,1.5,0.3,2.3,0.3c1.4,0,2-0.4,2-1.2c0-0.3-0.1-0.5-0.3-0.7  c-0.3-0.2-0.6-0.4-0.9-0.6c-0.6-0.3-1.2-0.6-1.8-0.8c-0.8-0.3-1.6-0.7-2.3-1.2c-0.5-0.3-0.8-0.8-1.1-1.3c-0.3-0.6-0.4-1.2-0.3-1.8  c0-1.1,0.5-2.2,1.4-2.8c1.2-0.8,2.7-1.1,4.1-1c1.7,0,3.4,0.4,4.9,1.1l-1.1,2.7c-0.6-0.2-1.3-0.5-1.9-0.8c-0.6-0.2-1.3-0.3-1.9-0.3  c-1.1,0-1.6,0.3-1.6,0.9c0,0.3,0.2,0.6,0.5,0.8c0.7,0.5,1.5,0.8,2.3,1.1c0.9,0.3,1.7,0.7,2.4,1.2c0.4,0.4,0.8,0.8,1.1,1.3  C160.3,65.1,160.4,65.6,160.4,66.3z"
   class="st0" />
<path
   style="fill:#ffdd00;fill-opacity:1"
   id="path22"
   d="M172.9,66.3c0.1,1.2-0.5,2.4-1.4,3.2c-1.3,0.8-2.9,1.2-4.5,1.1c-0.8,0-1.7-0.1-2.5-0.2  c-0.7-0.1-1.3-0.3-1.9-0.6v-3c0.8,0.4,1.6,0.6,2.4,0.8c0.7,0.2,1.5,0.3,2.3,0.3c1.4,0,2-0.4,2-1.2c0-0.3-0.1-0.5-0.3-0.7  c-0.3-0.2-0.6-0.4-0.9-0.6c-0.6-0.3-1.2-0.6-1.8-0.8c-0.8-0.3-1.6-0.7-2.3-1.2c-0.5-0.3-0.8-0.8-1.1-1.3c-0.3-0.6-0.4-1.2-0.3-1.8  c0-1.1,0.5-2.2,1.4-2.8c1.2-0.8,2.7-1.1,4.1-1c1.7,0,3.4,0.4,4.9,1.1l-1.1,2.7c-0.6-0.2-1.3-0.5-1.9-0.8c-0.6-0.2-1.3-0.3-1.9-0.3  c-1.1,0-1.6,0.3-1.6,0.9c0,0.3,0.2,0.6,0.5,0.8c0.7,0.5,1.5,0.8,2.3,1.1c0.9,0.3,1.7,0.7,2.4,1.2c0.5,0.3,0.8,0.8,1.1,1.3  C172.8,65.1,172.9,65.6,172.9,66.3z"
   class="st0" />
<path
   style="fill:#ffdd00;fill-opacity:1"
   id="path24"
   d="M181.8,70.7c-2,0.1-3.9-0.6-5.3-1.9c-1.4-1.4-2.1-3.3-1.9-5.3c-0.1-1.9,0.5-3.9,1.7-5.4c1.2-1.3,3-2,4.8-1.9  c1.7-0.1,3.4,0.5,4.6,1.6c1.2,1.3,1.7,3,1.6,4.7v1.8h-8.9c-0.2,1.7,1.1,3.2,2.8,3.4c0.2,0,0.4,0,0.6,0c0.8,0,1.6-0.1,2.4-0.3  c0.8-0.2,1.6-0.4,2.3-0.8v2.9c-0.7,0.3-1.4,0.6-2.1,0.8C183.6,70.6,182.7,70.7,181.8,70.7z M181.3,59c-0.7,0-1.4,0.3-1.9,0.8  c-0.5,0.6-0.7,1.3-0.8,2.1h5.3c0-0.8-0.3-1.5-0.8-2.1C182.6,59.3,182,59,181.3,59z"
   class="st0" />
<path
   style="fill:#ffdd00;fill-opacity:1"
   id="path26"
   d="M202.6,70.5h-3.8v-8c0-0.8-0.1-1.5-0.5-2.2c-0.3-0.5-0.9-0.8-1.5-0.8c-0.8-0.1-1.6,0.3-2.1,1  c-0.5,1.1-0.8,2.4-0.7,3.6v6.5h-3.8V56.7h2.9l0.5,1.8h0.2c0.4-0.6,0.9-1.1,1.6-1.4c0.8-0.3,1.6-0.5,2.4-0.5c2,0,3.6,0.7,4.2,2h0.3  c0.3-0.7,0.9-1.2,1.6-1.4c0.8-0.3,1.6-0.5,2.5-0.5c1.3-0.1,2.6,0.4,3.6,1.2c0.8,0.8,1.2,2,1.2,3.9v9h-3.8v-8c0-0.8-0.1-1.5-0.5-2.2  c-0.3-0.5-0.9-0.8-1.5-0.8c-0.8-0.1-1.6,0.3-2,1c-0.5,1-0.7,2-0.7,3.1L202.6,70.5L202.6,70.5z"
   class="st0" />
<path
   style="fill:#ffdd00;fill-opacity:1"
   id="path28"
   d="M222.3,56.4c1.5,0,3,0.7,3.9,1.9c1,1.6,1.5,3.4,1.4,5.3c0.1,1.9-0.4,3.7-1.4,5.3c-0.9,1.3-2.4,2-3.9,1.9  c-1.5,0-3-0.6-3.9-1.8h-0.3l-0.6,1.5h-2.9V51.2h3.8v4.5c0,0.6-0.1,1.4-0.2,2.7h0.2C219.3,57.1,220.7,56.3,222.3,56.4z M221.1,59.4  c-0.8-0.1-1.5,0.2-2,0.8c-0.5,0.8-0.7,1.8-0.7,2.8v0.4c-0.1,1.1,0.2,2.2,0.7,3.1c0.4,0.7,1.2,1,2,0.9c0.8,0,1.5-0.4,1.9-1  c0.5-0.9,0.7-2,0.7-3c0-1-0.2-2.1-0.7-3C222.6,59.8,221.9,59.4,221.1,59.4z"
   class="st0" />
<path
   style="fill:#ffdd00;fill-opacity:1"
   id="path30"
   d="M234.1,70.5h-3.8V51.2h3.8V70.5z"
   class="st0" />
<path
   style="fill:#ffdd00;fill-opacity:1"
   id="path32"
   d="M235.9,56.7h4.2l2.5,7.8c0.3,0.8,0.4,1.6,0.4,2.4h0.1c0.1-0.8,0.3-1.6,0.5-2.4l2.5-7.8h4.1l-5.8,15.6  c-0.4,1.3-1.2,2.4-2.3,3.2c-1,0.7-2.3,1.1-3.6,1.1c-0.6,0-1.3-0.1-1.9-0.2v-3c0.5,0.1,0.9,0.2,1.4,0.2c0.6,0,1.2-0.2,1.7-0.6  c0.5-0.5,1-1.2,1.2-1.9l0.3-0.7L235.9,56.7z"
   class="st0" />
<path
   style="fill:#ffdd00;fill-opacity:1"
   id="path34"
   d="M67.2,76.4c-14.7,12.1-36.5,10.1-48.6-4.6c-5.1-6.2-7.9-14-7.9-22.1c0-19,15.4-34.5,34.4-34.5  c8,0,15.8,2.8,22,7.9c2.4-0.6,4.8-0.9,7.2-0.9c2.5,0,5.1,0.3,7.5,1C78.3,18.5,74,14.4,69,11.3l3-6.8L62.4,0l-3,6.7  c-4.6-1.5-9.3-2.2-14.1-2.2C20.3,4.5,0,24.7,0,49.7c0,15.7,8.1,30.2,21.4,38.5l-3,6.7l9.6,4.6l3-6.7c4.6,1.5,9.3,2.2,14.1,2.2  c14.5,0,28.1-7,36.5-18.7c-2.4,0.7-5,1-7.5,1C71.8,77.3,69.5,77,67.2,76.4z"
   class="st0" />
<path
   style="fill:#ffdd00;fill-opacity:1"
   id="path36"
   d="M48.9,37.9c1.3-3,3.2-5.7,5.6-8H26.2v39.5h28.3c-2.3-2.3-4.2-5-5.6-8H34.2v-7.6h12.5c-0.2-1.4-0.3-2.7-0.3-4.1  c0-1.4,0.1-2.7,0.3-4.1H34.2V38C34.2,37.9,43.9,37.9,48.9,37.9z"
   class="st0" />
<path
   style="fill:#ffdd00;fill-opacity:1"
   id="path38"
   d="M71.3,53.4h9.6v7.3c-6.2,3.5-14.1,1.4-17.6-4.8c-3.5-6.2-1.4-14.1,4.8-17.6c1.9-1.1,4.2-1.7,6.4-1.7  c2.9,0,5.7,0.9,8,2.7l5-6.4c-9.1-7.2-22.2-5.6-29.4,3.5c-2.9,3.7-4.5,8.2-4.5,12.9c-0.1,11.6,9.2,21,20.8,21.1  c4.8,0,9.4-1.5,13.1-4.5l1.5-1.2V45.4H71.3V53.4z"
   class="st0" />
<path
   style="fill:#ffdd00;fill-opacity:1"
   id="path40"
   d="M117.2,29.8v25.8c0,3.8-3.1,6.9-6.9,6.9s-6.9-3.1-6.9-6.9V29.8h-8v25.8c0,8.2,6.7,14.9,14.9,14.9  s14.9-6.7,14.9-14.9V29.8H117.2z"
   class="st0" />
<g
   style="fill:#ffdd00;fill-opacity:1"
   id="g50">
	<path
   style="fill:#ffdd00;fill-opacity:1"
   id="path42"
   d="M284.7,70.9h-26.3V67L269,56.4c3.2-3.2,5.3-5.6,6.3-6.9c1-1.4,1.8-2.7,2.3-4c0.5-1.3,0.8-2.7,0.8-4.2   c0-2.1-0.6-3.8-1.9-5.1c-1.3-1.2-3.1-1.9-5.4-1.9c-1.7,0-3.2,0.3-4.7,0.8c-1.5,0.5-3.1,1.5-5,3l-2.4-3.1c3.7-3.1,7.7-4.6,12-4.6   c3.8,0,6.7,1,8.8,2.9c2.1,1.9,3.2,4.5,3.2,7.8c0,2.5-0.7,5-2.1,7.5c-1.4,2.5-4.1,5.6-8,9.4l-8.8,8.6v0.2h20.6V70.9z"
   class="st0" />
	<path
   style="fill:#ffdd00;fill-opacity:1"
   id="path44"
   d="M317,50.8c0,6.9-1.1,12.1-3.3,15.5c-2.2,3.4-5.5,5.1-10,5.1c-4.3,0-7.6-1.7-9.8-5.2s-3.4-8.6-3.4-15.4   c0-7,1.1-12.1,3.3-15.5c2.2-3.4,5.5-5.1,9.9-5.1c4.3,0,7.6,1.8,9.9,5.3C315.8,39.1,317,44.2,317,50.8z M295.1,50.8   c0,5.8,0.7,10,2.1,12.7s3.5,4,6.5,4c3,0,5.2-1.3,6.6-4c1.4-2.7,2-6.9,2-12.6s-0.7-9.9-2-12.6c-1.4-2.7-3.6-4-6.6-4   c-3,0-5.2,1.3-6.5,4C295.8,40.8,295.1,45,295.1,50.8z"
   class="st0" />
	<path
   style="fill:#ffdd00;fill-opacity:1"
   id="path46"
   d="M348.8,70.9h-26.3V67L333,56.4c3.2-3.2,5.3-5.6,6.3-6.9c1-1.4,1.8-2.7,2.3-4c0.5-1.3,0.8-2.7,0.8-4.2   c0-2.1-0.6-3.8-1.9-5.1c-1.3-1.2-3.1-1.9-5.4-1.9c-1.7,0-3.2,0.3-4.7,0.8c-1.5,0.5-3.1,1.5-5,3l-2.4-3.1c3.7-3.1,7.7-4.6,12-4.6   c3.8,0,6.7,1,8.8,2.9c2.1,1.9,3.2,4.5,3.2,7.8c0,2.5-0.7,5-2.1,7.5c-1.4,2.5-4.1,5.6-8,9.4l-8.8,8.6v0.2h20.6V70.9z"
   class="st0" />
	<path
   style="fill:#ffdd00;fill-opacity:1"
   id="path48"
   d="M371.3,70.9h-4.4V42.4c0-2.4,0.1-4.6,0.2-6.7c-0.4,0.4-0.8,0.8-1.3,1.2c-0.5,0.4-2.6,2.2-6.5,5.3l-2.4-3.1   l10.6-8.2h3.8V70.9z"
   class="st0" />
</g>
</svg>
